mtllib LowPolyCab.mtl
o LowPolyCab
v -110.000000 -45.000000 -35.000000
vt 0.000000 0.000000
v 98.000000 -45.000000 -35.000000
vt 0.945455 0.000000
v 110.000000 -45.000000 -24.000000
vt 1.000000 0.050000
v 110.000000 -45.000000 -6.000000
vt 1.000000 0.131818
v 52.000000 -45.000000 0.000000
vt 0.736364 0.159091
v -110.000000 -45.000000 0.000000
vt 0.000000 0.159091
vn 0.000000 -1.000000 0.000000
usemtl Body
f 1/1/1 2/2/1 3/3/1 4/4/1 5/5/1 6/6/1
v -110.000000 45.000000 0.000000
vt 0.000000 0.000000
v 52.000000 45.000000 0.000000
vt 0.736364 0.000000
v 110.000000 45.000000 -6.000000
vt 1.000000 0.027273
v 110.000000 45.000000 -24.000000
vt 1.000000 0.109091
v 98.000000 45.000000 -35.000000
vt 0.945455 0.159091
v -110.000000 45.000000 -35.000000
vt 0.000000 0.159091
vn 0.000000 1.000000 0.000000
usemtl Body
f 7/7/2 8/8/2 9/9/2 10/10/2 11/11/2 12/12/2
v -110.000000 -45.000000 -35.000000
vt 0.000000 0.000000
v -110.000000 45.000000 -35.000000
vt 0.409091 0.000000
v 98.000000 45.000000 -35.000000
vt 0.409091 0.945455
v 98.000000 -45.000000 -35.000000
vt 0.000000 0.945455
vn 0.000000 0.000000 -1.000000
usemtl Body
f 13/13/3 14/14/3 15/15/3 16/16/3
v 98.000000 -45.000000 -35.000000
vt 0.000000 0.000000
v 98.000000 45.000000 -35.000000
vt 0.409091 0.000000
v 110.000000 45.000000 -24.000000
vt 0.409091 0.073995
v 110.000000 -45.000000 -24.000000
vt 0.000000 0.073995
vn 0.675725 0.000000 -0.737154
usemtl Body
f 17/17/4 18/18/4 19/19/4 20/20/4
v 110.000000 -45.000000 -24.000000
vt 0.000000 0.000000
v 110.000000 45.000000 -24.000000
vt 0.409091 0.000000
v 110.000000 45.000000 -6.000000
vt 0.409091 0.081818
v 110.000000 -45.000000 -6.000000
vt 0.000000 0.081818
vn 1.000000 0.000000 0.000000
usemtl Body
f 21/21/5 22/22/5 23/23/5 24/24/5
v 110.000000 -45.000000 -6.000000
vt 0.000000 0.000000
v 110.000000 45.000000 -6.000000
vt 0.409091 0.000000
v 52.000000 45.000000 0.000000
vt 0.409091 0.265043
v 52.000000 -45.000000 0.000000
vt 0.000000 0.265043
vn 0.102899 0.000000 0.994692
usemtl Body
f 25/25/6 26/26/6 27/27/6 28/28/6
v 52.000000 -45.000000 0.000000
vt 0.000000 0.000000
v 52.000000 45.000000 0.000000
vt 0.409091 0.000000
v -110.000000 45.000000 0.000000
vt 0.409091 0.736364
v -110.000000 -45.000000 0.000000
vt 0.000000 0.736364
vn 0.000000 0.000000 1.000000
usemtl Body
f 29/29/7 30/30/7 31/31/7 32/32/7
v -110.000000 -45.000000 0.000000
vt 0.000000 0.000000
v -110.000000 45.000000 0.000000
vt 0.409091 0.000000
v -110.000000 45.000000 -35.000000
vt 0.409091 0.159091
v -110.000000 -45.000000 -35.000000
vt 0.000000 0.159091
vn -1.000000 0.000000 0.000000
usemtl Body
f 33/33/8 34/34/8 35/35/8 36/36/8
v -78.000000 -34.000000 0.000000
vt 0.000000 0.000000
v 40.000000 -34.000000 0.000000
vt 0.536364 0.000000
v 3.000000 -34.000000 35.000000
vt 0.368182 0.159091
v -55.000000 -34.000000 35.000000
vt 0.104545 0.159091
vn 0.000000 -1.000000 0.000000
usemtl Glass
f 37/37/9 38/38/9 39/39/9 40/40/9
v -55.000000 34.000000 35.000000
vt 0.000000 0.000000
v 3.000000 34.000000 35.000000
vt 0.263636 0.000000
v 40.000000 34.000000 0.000000
vt 0.431818 0.159091
v -78.000000 34.000000 0.000000
vt -0.104545 0.159091
vn 0.000000 1.000000 0.000000
usemtl Glass
f 41/41/10 42/42/10 43/43/10 44/44/10
v -78.000000 -34.000000 0.000000
vt 0.000000 0.000000
v -78.000000 34.000000 0.000000
vt 0.309091 0.000000
v 40.000000 34.000000 0.000000
vt 0.309091 0.536364
v 40.000000 -34.000000 0.000000
vt 0.000000 0.536364
vn 0.000000 0.000000 -1.000000
usemtl Body
f 45/45/11 46/46/11 47/47/11 48/48/11
v 40.000000 -34.000000 0.000000
vt 0.000000 0.000000
v 40.000000 34.000000 0.000000
vt 0.309091 0.000000
v 3.000000 34.000000 35.000000
vt 0.309091 0.231506
v 3.000000 -34.000000 35.000000
vt 0.000000 0.231506
vn 0.687200 0.000000 0.726468
usemtl Glass
f 49/49/12 50/50/12 51/51/12 52/52/12
v 3.000000 -34.000000 35.000000
vt 0.000000 0.000000
v 3.000000 34.000000 35.000000
vt 0.309091 0.000000
v -55.000000 34.000000 35.000000
vt 0.309091 0.263636
v -55.000000 -34.000000 35.000000
vt 0.000000 0.263636
vn 0.000000 0.000000 1.000000
usemtl Body
f 53/53/13 54/54/13 55/55/13 56/56/13
v -55.000000 -34.000000 35.000000
vt 0.000000 0.000000
v -55.000000 34.000000 35.000000
vt 0.309091 0.000000
v -78.000000 34.000000 0.000000
vt 0.309091 0.190367
v -78.000000 -34.000000 0.000000
vt 0.000000 0.190367
vn -0.835705 0.000000 0.549178
usemtl Glass
f 57/57/14 58/58/14 59/59/14 60/60/14
v 110.150000 -36.000000 -21.000000
vt 0.000000 0.000000
v 110.150000 -22.000000 -21.000000
vt 0.063636 0.000000
v 110.150000 -22.000000 -9.000000
vt 0.063636 0.054545
v 110.150000 -36.000000 -9.000000
vt 0.000000 0.054545
vn 1.000000 0.000000 0.000000
usemtl Headlight
f 61/61/15 62/62/15 63/63/15 64/64/15
v -110.150000 -36.000000 -21.000000
vt 0.000000 0.000000
v -110.150000 -36.000000 -9.000000
vt 0.054545 0.000000
v -110.150000 -22.000000 -9.000000
vt 0.054545 0.063636
v -110.150000 -22.000000 -21.000000
vt 0.000000 0.063636
vn -1.000000 0.000000 0.000000
usemtl Taillight
f 65/65/16 66/66/16 67/67/16 68/68/16
v 108.000000 -45.150000 -21.000000
vt 0.000000 0.000000
v 108.000000 -45.150000 -9.000000
vt 0.054545 0.000000
v 92.000000 -45.150000 -9.000000
vt 0.054545 0.072727
v 92.000000 -45.150000 -21.000000
vt 0.000000 0.072727
vn 0.000000 -1.000000 0.000000
usemtl Headlight
f 69/69/17 70/70/17 71/71/17 72/72/17
v -94.000000 -45.150000 -21.000000
vt 0.000000 0.000000
v -94.000000 -45.150000 -9.000000
vt 0.054545 0.000000
v -108.000000 -45.150000 -9.000000
vt 0.054545 0.063636
v -108.000000 -45.150000 -21.000000
vt 0.000000 0.063636
vn 0.000000 -1.000000 0.000000
usemtl Taillight
f 73/73/18 74/74/18 75/75/18 76/76/18
v 110.150000 22.000000 -21.000000
vt 0.000000 0.000000
v 110.150000 36.000000 -21.000000
vt 0.063636 0.000000
v 110.150000 36.000000 -9.000000
vt 0.063636 0.054545
v 110.150000 22.000000 -9.000000
vt 0.000000 0.054545
vn 1.000000 0.000000 0.000000
usemtl Headlight
f 77/77/19 78/78/19 79/79/19 80/80/19
v -110.150000 22.000000 -21.000000
vt 0.000000 0.000000
v -110.150000 22.000000 -9.000000
vt 0.054545 0.000000
v -110.150000 36.000000 -9.000000
vt 0.054545 0.063636
v -110.150000 36.000000 -21.000000
vt 0.000000 0.063636
vn -1.000000 0.000000 0.000000
usemtl Taillight
f 81/81/20 82/82/20 83/83/20 84/84/20
v 92.000000 45.150000 -21.000000
vt 0.000000 0.000000
v 92.000000 45.150000 -9.000000
vt 0.054545 0.000000
v 108.000000 45.150000 -9.000000
vt 0.054545 0.072727
v 108.000000 45.150000 -21.000000
vt 0.000000 0.072727
vn 0.000000 1.000000 0.000000
usemtl Headlight
f 85/85/21 86/86/21 87/87/21 88/88/21
v -108.000000 45.150000 -21.000000
vt 0.000000 0.000000
v -108.000000 45.150000 -9.000000
vt 0.054545 0.000000
v -94.000000 45.150000 -9.000000
vt 0.054545 0.063636
v -94.000000 45.150000 -21.000000
vt 0.000000 0.063636
vn 0.000000 1.000000 0.000000
usemtl Taillight
f 89/89/22 90/90/22 91/91/22 92/92/22
